<?xml version="1.0" encoding="UTF-8"?>
<svg version="1.1" xmlns="http://www.w3.org/2000/svg" width="1094" height="914">
<path d="M0 0 C361.02 0 722.04 0 1094 0 C1094 301.62 1094 603.24 1094 914 C732.98 914 371.96 914 0 914 C0 612.38 0 310.76 0 0 Z " fill="#FEFEFE" transform="translate(0,0)"/>
<path d="M0 0 C0.66 0 1.32 0 2 0 C2.08636719 1.02996094 2.17273438 2.05992188 2.26171875 3.12109375 C3.71099793 18.503506 6.63417242 32.39067886 16 45 C16.7115625 45.98097656 17.423125 46.96195313 18.15625 47.97265625 C19.52486338 49.85449965 20.90508342 51.7279993 22.30078125 53.58984375 C23.77383404 55.67920828 24.9400355 57.68099137 26 60 C26.66 60 27.32 60 28 60 C28.92094698 61.02293104 29.78447937 62.09752004 30.625 63.1875 C38.55549475 72.51163818 49.08878548 80.15467975 59.50390625 86.46875 C62.0185752 88.01139511 64.41093005 89.66237313 66.8125 91.375 C70.10798638 93.71557379 73.45155322 95.93677849 76.87475586 98.08642578 C89.40307114 105.96795764 101.29844122 114.75006664 112 125 C112.71285156 125.67289062 113.42570313 126.34578125 114.16015625 127.0390625 C117.75778849 130.51510478 117.75778849 130.51510478 119 132 C119 132.66 119 133.32 119 134 C119.66 134 120.32 134 121 134 C122.17333984 135.50952148 122.17333984 135.50952148 123.4609375 137.62109375 C123.93273437 138.39259766 124.40453125 139.16410156 124.890625 139.95898438 C125.62539063 141.18584961 125.62539063 141.18584961 126.375 142.4375 C127.09816406 143.6121582 127.09816406 143.6121582 127.8359375 144.81054688 C132.75842363 152.93666188 136.27601729 160.98474208 138.625 170.1875 C138.82867188 170.93580078 139.03234375 171.68410156 139.2421875 172.45507812 C142.50740208 184.98219946 143.35042045 197.4233196 143.31567383 210.30273438 C143.31252136 212.73353335 143.33604977 215.1631008 143.36132812 217.59375 C143.42170231 232.3514171 141.31675905 246.58398515 137.375 260.8125 C137.12556641 261.72064453 136.87613281 262.62878906 136.61914062 263.56445312 C133.9102481 272.97736744 130.07212485 281.82376072 126.01806641 290.72265625 C124.65147783 293.77961985 123.43035692 296.89102457 122.1875 300 C118.03038788 309.78283365 112.39271703 318.86037817 107 328 C106.34 328 105.68 328 105 328 C105.0721875 327.44054687 105.144375 326.88109375 105.21875 326.3046875 C107.99801733 302.29490584 103.84650307 280.5887858 93.32324219 258.97119141 C91.88819233 256.01653488 90.61252033 253.23991016 90 250 C89.34 250 88.68 250 88 250 C87.5978125 249.154375 87.195625 248.30875 86.78125 247.4375 C84.89701064 243.8012486 82.77627152 240.39715261 80.5 237 C80.0656665 236.35063477 79.63133301 235.70126953 79.18383789 235.03222656 C74.46845388 228.07827692 69.30024892 221.51365416 64 215 C63.20335937 214.0203125 62.40671875 213.040625 61.5859375 212.03125 C59.39481427 209.35070061 57.19789917 206.67499417 55 204 C44.76470564 191.52893994 35.53548423 178.61760761 27.13574219 164.84960938 C25.41402221 162.04570772 23.6456315 159.27327825 21.875 156.5 C21.31554687 155.6234375 20.75609375 154.746875 20.1796875 153.84375 C19.79039062 153.2353125 19.40109375 152.626875 19 152 C21.99067987 165.85631577 26.35085313 178.53892063 31.96142578 191.54492188 C32.86367274 193.67773696 33.71409985 195.81646881 34.52734375 197.984375 C40.93456546 214.99601293 50.08596047 231.24443041 59.66015625 246.67578125 C69.36957734 262.53679774 77.39435687 280.22977124 81.5625 298.375 C81.77068359 299.25671875 81.97886719 300.1384375 82.19335938 301.046875 C88.59643693 328.42555145 87.02445266 350.96462193 79.57128906 377.86132812 C78.50406606 381.85657322 77.63595636 385.90155526 76.7734375 389.9453125 C76.51820313 390.62335938 76.26296875 391.30140625 76 392 C75.01 392.33 74.02 392.66 73 393 C72.86537354 392.46858398 72.73074707 391.93716797 72.59204102 391.38964844 C69.91175202 380.99782644 66.87269413 370.97743636 62.4375 361.1875 C62.07406494 360.38344727 61.71062988 359.57939453 61.33618164 358.75097656 C59.18176114 354.14008244 56.76020175 349.85841414 53.93774414 345.62231445 C53 344 53 344 53 342 C52.34 342 51.68 342 51 342 C49.8946653 340.37485926 48.86646119 338.69701265 47.875 337 C44.90464846 332.15363696 41.69179162 328.38093315 37.50390625 324.55859375 C36 323 36 323 36 321 C35.34 321 34.68 321 34 321 C32.65080468 319.34614767 31.31866272 317.678298 30 316 C29.01 315.34 28.02 314.68 27 314 C27 313.34 27 312.68 27 312 C26.01 311.67 25.02 311.34 24 311 C22.421875 309.3984375 22.421875 309.3984375 20.75 307.375 C18.47162526 304.681942 16.16877889 302.13071089 13.625 299.6875 C-5.73214769 280.59017979 -20.66034181 255.35434587 -30 230 C-30.58564741 228.48115595 -31.17299053 226.96296503 -31.76171875 225.4453125 C-35.07708509 216.81908322 -37.97412122 208.41048272 -39.5859375 199.28076172 C-40.10879943 196.40070501 -40.68117191 193.53148333 -41.25 190.66015625 C-45.85605285 167.1155522 -45.85605285 167.1155522 -46 155 C-46.01901367 154.04722168 -46.03802734 153.09444336 -46.05761719 152.11279297 C-46.65258432 119.73585187 -43.95283098 86.32544072 -31.79199219 55.99267578 C-31.06547248 54.1647307 -30.39319651 52.31546883 -29.7265625 50.46484375 C-23.20810811 32.46253514 -13.6211586 13.6211586 0 0 Z " fill="#51A3A3" transform="translate(388,122)"/>
<path d="M0 0 C11.14108302 8.53286048 18.64931923 18.92586004 25.26953125 31.1171875 C25.8869519 32.22731201 25.8869519 32.22731201 26.5168457 33.35986328 C30.04930687 40.00155993 32.09141284 46.72520006 33.95703125 53.9921875 C34.39885742 55.63380859 34.39885742 55.63380859 34.84960938 57.30859375 C45.49497467 97.73705971 40.23908169 143.23533032 20.33154297 180.12255859 C19.24516182 182.1629572 18.20863753 184.22307626 17.1796875 186.29296875 C9.70096934 201.16501207 0.1423893 214.524441 -10.73046875 227.1171875 C-11.48070312 227.98988281 -12.2309375 228.86257813 -13.00390625 229.76171875 C-16.97446189 234.28110546 -21.03806396 238.45760095 -25.6328125 242.33984375 C-28.04485081 244.38356336 -30.38685464 246.49541167 -32.73046875 248.6171875 C-33.58511719 249.38417969 -34.43976563 250.15117187 -35.3203125 250.94140625 C-36.74037215 252.22337257 -38.15277724 253.51406666 -39.546875 254.82421875 C-45.94984875 260.71151676 -53.19551417 265.49471149 -60.32714844 270.44189453 C-62.76570196 272.14174767 -65.19081887 273.85933782 -67.61328125 275.58203125 C-76.67681375 282.01071242 -85.8383631 288.18768536 -95.27319336 294.05932617 C-99.3207451 296.58066079 -103.29175389 299.14771511 -107.16796875 301.9296875 C-111.52185673 305.05148565 -116.08154072 307.70747334 -120.7265625 310.37109375 C-128.59244062 314.9433272 -136.14821194 320.02016005 -143.69921875 325.08984375 C-145.69125265 326.42214478 -147.6910946 327.74285828 -149.69921875 329.05078125 C-178.11644676 347.44553811 -178.11644676 347.44553811 -195.73046875 375.1171875 C-196.72046875 375.1171875 -197.71046875 375.1171875 -198.73046875 375.1171875 C-206.2944825 352.47017014 -202.65932132 324.93946393 -192.56884766 303.66845703 C-184.94006844 288.39014406 -175.38739911 274.83037184 -163.74609375 262.3515625 C-161.74149302 260.1294082 -159.95513277 257.82867343 -158.16796875 255.4296875 C-155.41769936 251.8172055 -152.45488436 249.03193012 -148.9765625 246.13671875 C-145.6352047 243.13240226 -142.67345925 239.80917772 -139.67480469 236.4675293 C-136.7844697 233.24691575 -133.81283348 230.15408962 -130.73046875 227.1171875 C-128.1650921 224.5784116 -125.60375755 222.03558976 -123.04296875 219.4921875 C-122.36685547 218.82445312 -121.69074219 218.15671875 -120.99414062 217.46875 C-120.02250977 216.50195312 -120.02250977 216.50195312 -119.03125 215.515625 C-118.44512939 214.93474121 -117.85900879 214.35385742 -117.25512695 213.75537109 C-115.52796048 211.98764256 -115.52796048 211.98764256 -113.73046875 209.1171875 C-113.07046875 209.1171875 -112.41046875 209.1171875 -111.73046875 209.1171875 C-111.46492187 208.52164063 -111.199375 207.92609375 -110.92578125 207.3125 C-109.69600627 205.05389366 -108.48272822 203.72974394 -106.60546875 201.9921875 C-103.02053896 198.51074022 -99.96217201 194.76506282 -96.88671875 190.83203125 C-94.62997234 187.99065669 -92.27990202 185.24653057 -89.91796875 182.4921875 C-81.84130363 172.81997904 -75.00590862 162.26443269 -68.29296875 151.6171875 C-67.89207031 150.98329102 -67.49117187 150.34939453 -67.078125 149.69628906 C-62.06298513 141.62716621 -58.48861058 133.25956394 -55.16796875 124.3671875 C-54.78189453 123.35914063 -54.39582031 122.35109375 -53.99804688 121.3125 C-46.44462926 101.18721014 -42.49886485 77.66309823 -50.94921875 57.16015625 C-55.55115009 47.815679 -62.88570925 40.73518422 -72.73046875 37.1171875 C-85.74617854 32.93098879 -100.45852548 34.78103753 -112.57421875 40.9765625 C-114.84565021 42.19994751 -117.04090794 43.49257585 -119.25390625 44.82421875 C-120.07117188 45.25089844 -120.8884375 45.67757812 -121.73046875 46.1171875 C-122.39046875 45.7871875 -123.05046875 45.4571875 -123.73046875 45.1171875 C-122.98603516 44.281875 -122.98603516 44.281875 -122.2265625 43.4296875 C-118.84150293 39.62711584 -115.46110736 35.82076846 -112.10546875 31.9921875 C-111.53054688 31.33863281 -110.955625 30.68507812 -110.36328125 30.01171875 C-109.3358376 28.81958916 -108.32741583 27.61052493 -107.34765625 26.37890625 C-103.57700931 21.69253077 -99.19930454 18.08813033 -94.48828125 14.36328125 C-92.10451714 12.42183031 -89.97395206 10.40109608 -87.79296875 8.2421875 C-77.82390684 -0.7191714 -63.74330215 -7.71923874 -50.73046875 -10.8828125 C-49.61865234 -11.16511719 -49.61865234 -11.16511719 -48.484375 -11.453125 C-30.42593217 -14.27075438 -15.00553893 -10.34716705 0 0 Z " fill="#3F8ABA" transform="translate(678.73046875,203.8828125)"/>
<path d="M0 0 C75.86149312 0 75.86149312 0 87.375 10.8125 C94.77204953 18.70268617 96.6399947 27.21319674 96.41015625 37.765625 C95.94589277 45.147248 92.53150285 52.11634137 87 57.0625 C84.07707185 58.95022443 81.16962768 60.56612081 78 62 C79.68635229 63.12423486 81.37776673 64.24123306 83.0859375 65.33203125 C91.07062852 70.49619148 97.06872034 75.67320107 100 85 C101.01959037 94.67570454 101.16396024 105.944524 95.375 114.1875 C88.79202239 122.07750948 81.24925807 127.94785594 71 130 C68.67746246 130.0879269 66.35251797 130.11764631 64.02832031 130.11352539 C62.97194933 130.11370619 62.97194933 130.11370619 61.89423752 130.11389065 C59.62216751 130.11314625 57.35018027 130.10553963 55.078125 130.09765625 C53.67236368 130.09618536 52.26660182 130.09516556 50.86083984 130.09460449 C45.65721819 130.08936861 40.45360828 130.07540736 35.25 130.0625 C23.6175 130.041875 11.985 130.02125 0 130 C0 87.1 0 44.2 0 0 Z " fill="#132D53" transform="translate(396,623)"/>
<path d="M0 0 C0 0.66 0 1.32 0 2 C0.74507812 2.2578125 1.49015625 2.515625 2.2578125 2.78125 C10.51160879 6.44960391 17.83314961 16.47572209 21.06640625 24.71875 C21.80207859 27.1354514 22.43843523 29.53775446 23 32 C23.18304687 32.59039062 23.36609375 33.18078125 23.5546875 33.7890625 C25.94673024 45.66534487 24.49468504 60.6980858 18 71 C9.83334705 82.45599928 -1.54836475 91.88399246 -15.75 94.75390625 C-29.80628483 96.2913124 -41.23037213 93.8808327 -53 86 C-64.56771997 76.50573927 -71.83643521 62.98800337 -73.4140625 48.08984375 C-73.77188931 32.10149115 -68.72841383 19.68566287 -58 8 C-42.9862326 -6.94360961 -18.78789141 -10.72213854 0 0 Z " fill="#3A7ABE" transform="translate(616,93)"/>
<path d="M0 0 C1.42119141 0.77923828 1.42119141 0.77923828 2.87109375 1.57421875 C12.23745831 7.14727061 22.45266462 14.75306326 27 25 C26 28 26 28 24.06640625 29.02734375 C23.24011719 29.32769531 22.41382813 29.62804687 21.5625 29.9375 C20.66917969 30.27136719 19.77585937 30.60523438 18.85546875 30.94921875 C17.91316406 31.29597656 16.97085938 31.64273438 16 32 C14.12273115 32.74430281 12.24759546 33.49401638 10.375 34.25 C8.91666667 34.83333333 7.45833333 35.41666667 6 36 C5.51273438 35.35933594 5.02546875 34.71867188 4.5234375 34.05859375 C-1.95990084 26.14892097 -10.61678961 19.74727138 -21 18 C-33.58825284 16.94089219 -44.28443609 19.10298069 -54.2578125 27.296875 C-63.25411452 36.09146621 -66.34378204 48.14091494 -66.5 60.4375 C-66.33584318 73.3824375 -63.21059235 85.36256497 -54.15234375 94.95703125 C-45.55231565 103.07833015 -36.30454084 105.39354404 -24.73828125 105.2734375 C-15.55264316 104.60155175 -8.63642372 101.40098478 -1.7421875 95.390625 C0 94 0 94 2 94 C2.268125 93.360625 2.53625 92.72125 2.8125 92.0625 C4 90 4 90 7 89 C9.671875 90.109375 9.671875 90.109375 12.75 91.75 C17.11504028 94.02787296 21.4449973 96.1365898 26 98 C21.0640484 109.20872343 8.73139696 118.92483463 -2.19140625 123.96875 C-18.68256377 130.02391771 -39.12222669 130.29164627 -55.5078125 123.55859375 C-64.68928869 118.88103318 -73.78036991 113.04941786 -79 104 C-79.66 103.67 -80.32 103.34 -81 103 C-92.50430724 85.321827 -96.26418292 64.62485606 -92.38671875 43.85546875 C-91.49169003 40.7208968 -90.40501956 37.94064657 -89 35 C-88.72623535 34.4033252 -88.4524707 33.80665039 -88.17041016 33.19189453 C-79.7908181 15.1655526 -67.21339967 4.58795726 -49.109375 -3.125 C-34.08726755 -7.35232672 -13.7846588 -7.65814378 0 0 Z " fill="#132C53" transform="translate(601,627)"/>
<path d="M0 0 C8.58 0 17.16 0 26 0 C32.96428571 19.55357143 32.96428571 19.55357143 34.9375 26.875 C36.87244008 33.96140392 39.40715155 40.79537412 42.00756836 47.65966797 C43.87267539 52.64521605 45.49651935 57.62782924 46.921875 62.7578125 C49.01702344 70.26303602 51.58559415 77.55562928 54.25 84.875 C54.71396576 86.16000321 55.17750908 87.44515902 55.640625 88.73046875 C56.75630345 91.8218278 57.87613208 94.91161096 59 98 C62.23734884 91.05337272 64.92505742 83.96511215 67.5 76.75 C67.87769531 75.70714844 68.25539063 74.66429687 68.64453125 73.58984375 C70.53771816 68.31364242 72.3186707 63.02952623 73.9296875 57.66015625 C76.38691411 49.54448958 79.38859941 41.64022899 82.36914062 33.70678711 C84.93531552 26.86224344 87.32428687 20.1217808 89 13 C90.55798062 8.61876965 92.28800781 4.3250329 94 0 C102.25 0 110.5 0 119 0 C119 1.32 119 2.64 119 4 C118.34 4 117.68 4 117 4 C117.05647705 4.83176758 117.1129541 5.66353516 117.17114258 6.52050781 C116.96977369 10.61452972 115.77574965 13.91983563 114.26171875 17.671875 C113.98028519 18.39433411 113.69885162 19.11679321 113.40888977 19.86114502 C112.51123184 22.16128011 111.60020734 24.4557999 110.6875 26.75 C109.49853576 29.76353628 108.31552368 32.77935094 107.13671875 35.796875 C106.70872986 36.88992195 106.70872986 36.88992195 106.27209473 38.00505066 C104.54364912 42.46298189 103.0666084 46.92379742 101.76782227 51.52685547 C100.05874891 57.03175631 97.77478232 62.34335333 95.625 67.6875 C92.26666552 76.10680389 89.06134792 84.51166372 86.3125 93.15234375 C84.22989038 99.46785742 81.67370063 105.62281226 79.20849609 111.79614258 C77.166498 116.92778416 75.25656293 122.05477606 73.60009766 127.32470703 C73 129 73 129 72 130 C70.07332493 130.08748207 68.14348139 130.10697334 66.21484375 130.09765625 C65.04501953 130.09443359 63.87519531 130.09121094 62.66992188 130.08789062 C61.43822266 130.07951172 60.20652344 130.07113281 58.9375 130.0625 C57.08415039 130.05573242 57.08415039 130.05573242 55.19335938 130.04882812 C52.12885883 130.03699608 49.06445279 130.02051173 46 130 C45.75354736 129.30551758 45.50709473 128.61103516 45.25317383 127.89550781 C44.10961845 124.67914156 42.96108234 121.46457436 41.8125 118.25 C41.42513672 117.15816406 41.03777344 116.06632813 40.63867188 114.94140625 C38.7104855 109.55523274 36.70817154 104.24113376 34.44921875 98.984375 C32.73418089 94.9436092 31.30999237 90.92714246 30.0625 86.71875 C27.81232404 79.1368318 24.91977092 71.84088084 22 64.5 C18.67402112 56.13783212 15.56537189 47.81123234 13.00097656 39.17529297 C10.88952307 32.47735049 8.15779454 25.9970468 5.53515625 19.48632812 C5.10847656 18.40416016 4.68179687 17.32199219 4.2421875 16.20703125 C3.8591748 15.2528833 3.47616211 14.29873535 3.08154297 13.31567383 C1.66872393 8.98441076 0.89347845 4.46739227 0 0 Z " fill="#132C53" transform="translate(263,623)"/>
<path d="M0 0 C1.60875 0.86625 1.60875 0.86625 3.25 1.75 C12.02412371 8.92882849 15.66001236 15.86099723 17 27 C17.24810236 31.95332241 17.2348445 36.89770436 17.1953125 41.85546875 C17.19157238 43.25222061 17.18873015 44.64897514 17.18673706 46.04573059 C17.17917908 49.68380249 17.15960016 53.3217092 17.1373291 56.9597168 C17.11669966 60.68731453 17.10769916 64.4149395 17.09765625 68.14257812 C17.076345 75.42846867 17.04122906 82.71418995 17 90 C10.07 90 3.14 90 -4 90 C-4 87.69 -4 85.38 -4 83 C-4.969375 83.763125 -5.93875 84.52625 -6.9375 85.3125 C-14.57487717 90.76997802 -24.70802881 93.00221569 -34 92 C-42.94346335 90.37391575 -51.1272511 88.49229563 -57 81 C-62.41444883 72.48020552 -63.46906838 63.09718846 -61.421875 53.20703125 C-58.80718686 45.54124102 -53.59280095 40.64526933 -46.66015625 36.65234375 C-38.87544106 32.93963343 -31.04115962 32.83884367 -22.5625 32.875 C-21.20801758 32.86919922 -21.20801758 32.86919922 -19.82617188 32.86328125 C-14.45903423 32.87105408 -9.31026365 33.21743483 -4 34 C-5.27654129 25.26351019 -5.27654129 25.26351019 -10 18 C-19.55432895 12.95423993 -28.69460087 14.77946707 -38.6015625 17.77734375 C-43.05309589 19.37887243 -47.03164883 21.43841882 -51 24 C-52.04008202 21.96807164 -53.0563611 19.92394802 -54.0625 17.875 C-54.63097656 16.73804688 -55.19945312 15.60109375 -55.78515625 14.4296875 C-57.15658674 10.55793197 -57.51954374 8.82268494 -56 5 C-41.16811572 -5.46956537 -16.24637085 -8.92930306 0 0 Z " fill="#122B52" transform="translate(736,663)"/>
<path d="M0 0 C7.26 0 14.52 0 22 0 C22 30.36 22 60.72 22 92 C14.74 92 7.48 92 0 92 C0 61.64 0 31.28 0 0 Z " fill="#0F2B53" transform="translate(773,661)"/>
<path d="M0 0 C5.30241361 -0.06902853 10.6032561 -0.12871364 15.90576172 -0.16479492 C17.70789892 -0.1798424 19.50999973 -0.2002853 21.31201172 -0.22631836 C23.90862021 -0.26288021 26.50474275 -0.27976681 29.1015625 -0.29296875 C30.30191635 -0.31619453 30.30191635 -0.31619453 31.52651978 -0.33988953 C36.43638873 -0.34135275 39.74119873 0.29502122 44 3 C48.32235726 7.51882804 50.72426665 11.07722646 51.3125 17.3125 C50.8250372 23.06456103 49.61350495 27.9252843 45.1875 31.875 C39.44460073 35.70359951 34.31877756 36.2882254 27.5390625 36.1953125 C26.83740967 36.19329834 26.13575684 36.19128418 25.4128418 36.18920898 C22.81682707 36.1788238 20.22090628 36.15090176 17.625 36.125 C11.80875 36.08375 5.9925 36.0425 0 36 C0 24.12 0 12.24 0 0 Z " fill="#F9F9FA" transform="translate(420,697)"/>
<path d="M0 0 C5.115 -0.061875 10.23 -0.12375 15.5 -0.1875 C17.89668945 -0.22846802 17.89668945 -0.22846802 20.34179688 -0.27026367 C36.04935183 -0.36225376 36.04935183 -0.36225376 42.9375 5.5 C47.12163387 10.57167742 46.59928261 16.71585593 46 23 C43.75639361 27.65340584 40.34781375 31.80608908 35.31933594 33.59936523 C32.01246074 34.17058441 28.73476392 34.12237718 25.390625 34.09765625 C24.74593262 34.09664917 24.10124023 34.09564209 23.43701172 34.09460449 C21.04132291 34.08939402 18.64565957 34.07543281 16.25 34.0625 C10.8875 34.041875 5.525 34.02125 0 34 C0 22.78 0 11.56 0 0 Z " fill="#FCFCFC" transform="translate(421,644)"/>
<path d="M0 0 C1.66289063 0.00966797 1.66289063 0.00966797 3.359375 0.01953125 C4.50148438 0.03628906 5.64359375 0.05304687 6.8203125 0.0703125 C8.56828125 0.08384766 8.56828125 0.08384766 10.3515625 0.09765625 C13.21635827 0.12113818 16.08072785 0.15398109 18.9453125 0.1953125 C20.00726913 14.38844716 20.00726913 14.38844716 17.59765625 18.48828125 C15.76094254 20.05857055 14.11303267 21.12745035 11.9453125 22.1953125 C11.04167969 22.72769531 10.13804687 23.26007812 9.20703125 23.80859375 C5.35104468 25.44796528 1.99766789 25.63946973 -2.1171875 25.5703125 C-2.81134766 25.58191406 -3.50550781 25.59351563 -4.22070312 25.60546875 C-8.69796626 25.57995728 -11.48974117 24.90238404 -15.0546875 22.1953125 C-15.64121094 21.75960937 -16.22773437 21.32390625 -16.83203125 20.875 C-19.17985818 17.64955086 -18.63251308 13.92457822 -18.53515625 10.0859375 C-18.0366476 7.08677977 -17.68122249 6.03228 -15.4296875 4.0703125 C-10.25022028 1.19283071 -5.92464703 -0.06107884 0 0 Z " fill="#F6F6F7" transform="translate(713.0546875,711.8046875)"/>
<path d="M0 0 C4.28109703 2.51281782 6.40594023 5.30637957 8 10 C8.20650151 14.67519427 7.57851036 18.05509975 5.125 22.0625 C3 24 3 24 0 24 C0 24.66 0 25.32 0 26 C-9.85314348 26.62121395 -9.85314348 26.62121395 -14 24.375 C-18.08528692 19.52372178 -19.59072808 15.40144393 -19.34765625 9.11328125 C-18.80113219 5.79115182 -17.47950343 4.21850307 -15 2 C-10.00221918 -1.48682383 -5.72111488 -1.54396076 0 0 Z " fill="#142C53" transform="translate(653,728)"/>
<path d="M0 0 C3.93860989 0.06611575 6.73374638 0.14012774 9.875 2.625 C13.4532187 6.86236425 14.48077869 9.44531891 14.0625 14.9375 C13.52335602 18.70523876 12.70692409 21.43459278 10.25 24.4375 C5.8002367 27.16913344 1.32196385 27.09349532 -3.75 26.4375 C-7.87974965 24.37262518 -10.04527061 22.6916445 -11.75 18.4375 C-12.47080958 13.3583069 -12.31473502 9.49167204 -9.875 4.9375 C-6.44541775 0.90269736 -5.30972063 0.11227021 0 0 Z " fill="#132B51" transform="translate(782.75,620.5625)"/>
<path d="M0 0 C7.26 0 14.52 0 22 0 C22 30.36 22 60.72 22 92 C14.74 92 7.48 92 0 92 C0 61.64 0 31.28 0 0 Z M1 2 C1 31.04 1 60.08 1 90 C7.27 90 13.54 90 20 90 C20 60.96 20 31.92 20 2 C13.73 2 7.46 2 1 2 Z " fill="#132244" transform="translate(773,661)"/>
<path d="M0 0 C0.99 1.98 0.99 1.98 2 4 C0.824375 4.61875 0.824375 4.61875 -0.375 5.25 C-3.06836949 6.71987519 -3.06836949 6.71987519 -3.90234375 8.91015625 C-5.26490841 11.50436299 -6.79347582 12.51868796 -9.1875 14.1875 C-14.08905411 17.85184511 -17.44980469 22.0614081 -21 27 C-23.79307352 30.61456573 -26.77135643 33.77135643 -30 37 C-33.81429311 41.13425589 -37.15980723 45.13109811 -40 50 C-40.70125 50.680625 -41.4025 51.36125 -42.125 52.0625 C-44.14463219 54.14945327 -44.44625511 55.23127557 -45 58 C-45.66 58.66 -46.32 59.32 -47 60 C-46.67 60.66 -46.34 61.32 -46 62 C-46.66 62 -47.32 62 -48 62 C-48.4021875 63.0828125 -48.4021875 63.0828125 -48.8125 64.1875 C-50 67 -50 67 -51.5625 69.375 C-53.31405116 72.57348473 -53.64675078 75.39685799 -54 79 C-55.485 79.495 -55.485 79.495 -57 80 C-57.12375 81.010625 -57.2475 82.02125 -57.375 83.0625 C-58 87 -58 87 -58.9375 90.1875 C-61.30185676 98.67136836 -62.19345791 106.90462814 -62.25 115.6875 C-62.26377686 116.8626416 -62.26377686 116.8626416 -62.27783203 118.06152344 C-62.24997924 123.36692319 -62.05656728 129.04434076 -60 134 C-59.01 134.33 -58.02 134.66 -57 135 C-57.33 136.98 -57.66 138.96 -58 141 C-58.99 141 -59.98 141 -61 141 C-68.56401375 118.35298264 -64.92885257 90.82227643 -54.83837891 69.55126953 C-47.20959969 54.27295656 -37.65693036 40.71318434 -26.015625 28.234375 C-24.01102427 26.0122207 -22.22466402 23.71148593 -20.4375 21.3125 C-17.66084231 17.66135472 -14.64979484 14.83017257 -11.1328125 11.90625 C-7.07255867 8.27730519 -3.5680359 4.10489315 0 0 Z " fill="#579DAF" transform="translate(541,438)"/>
<path d="M0 0 C0.66 0 1.32 0 2 0 C0.73625445 5.0549822 -0.81676214 6.98417735 -5 10 C-7.28169735 12.22737122 -9.51485923 14.47892287 -11.6875 16.8125 C-13 18 -13 18 -15 18 C-15.08121094 18.59296875 -15.16242187 19.1859375 -15.24609375 19.796875 C-16.23118234 22.67557949 -17.59207507 23.52462386 -20.0625 25.25 C-20.79597656 25.77078125 -21.52945313 26.2915625 -22.28515625 26.828125 C-22.85105469 27.21484375 -23.41695312 27.6015625 -24 28 C-24 25 -24 25 -22.56298828 23.23828125 C-21.90540527 22.60277344 -21.24782227 21.96726562 -20.5703125 21.3125 C-19.85746094 20.61382812 -19.14460937 19.91515625 -18.41015625 19.1953125 C-17.65605469 18.47085937 -16.90195312 17.74640625 -16.125 17 C-14.6462914 15.56470771 -13.16963923 14.12729295 -11.6953125 12.6875 C-11.03547363 12.05199219 -10.37563477 11.41648437 -9.69580078 10.76171875 C-7.80932475 8.90615857 -7.80932475 8.90615857 -6 6 C-5.34 6 -4.68 6 -4 6 C-3.566875 5.071875 -3.566875 5.071875 -3.125 4.125 C-2 2 -2 2 0 0 Z " fill="#599AB3" transform="translate(571,407)"/>
<path d="M0 0 C0.66 0 1.32 0 2 0 C2.33 1.98 2.66 3.96 3 6 C4.65 5.67 6.3 5.34 8 5 C5.10426259 7.89573741 1.63815219 9.3652437 -2 11.1875 C-2.73734375 11.56841797 -3.4746875 11.94933594 -4.234375 12.34179688 C-6.12517521 13.29237253 -8.06037085 14.15350236 -10 15 C-10.66 14.67 -11.32 14.34 -12 14 C-11.46890625 13.40832031 -10.9378125 12.81664062 -10.390625 12.20703125 C-5.88718091 7.17389461 -5.88718091 7.17389461 -1.625 1.9375 C-1.08875 1.298125 -0.5525 0.65875 0 0 Z " fill="#4B83B5" transform="translate(567,235)"/>
<path d="M0 0 C1.25413948 3.76241843 0.57798863 6.07596834 0 10 C-0.16842016 13.12582268 -0.18500011 16.24514312 -0.1875 19.375 C-0.19974609 20.17421875 -0.21199219 20.9734375 -0.22460938 21.796875 C-0.2377098 27.19424829 -0.11244048 32.95721629 2 38 C2.99 38.33 3.98 38.66 5 39 C4.67 40.98 4.34 42.96 4 45 C3.01 45 2.02 45 1 45 C-1.87857075 36.38142211 -2.30201716 28.14482714 -2.3125 19.125 C-2.31765625 18.04355713 -2.3228125 16.96211426 -2.328125 15.84790039 C-2.27902843 10.18732835 -1.90993565 5.34173239 0 0 Z " fill="#4895A1" transform="translate(479,534)"/>
<path d="M0 0 C0.33 0 0.66 0 1 0 C3.52566631 13.25974811 1.71093432 25.96169685 -1 39 C-1.33 39 -1.66 39 -2 39 C-1.9278125 37.90945313 -1.855625 36.81890625 -1.78125 35.6953125 C-1.2180022 26.70044631 -0.89230953 17.76623186 -1.03710938 8.75244141 C-1.07486937 5.54792506 -1.02209608 3.06628825 0 0 Z " fill="#4B85A4" transform="translate(473,443)"/>
<path d="M0 0 C1.03326595 2.65160197 1.1209714 3.70837733 0.01196289 6.38183594 C-0.7499939 7.67009277 -0.7499939 7.67009277 -1.52734375 8.984375 C-2.07197266 9.91894531 -2.61660156 10.85351562 -3.17773438 11.81640625 C-3.75845703 12.78449219 -4.33917969 13.75257813 -4.9375 14.75 C-5.51435547 15.73355469 -6.09121094 16.71710938 -6.68554688 17.73046875 C-8.11281234 20.16035872 -9.55120106 22.5829083 -11 25 C-11.66 25 -12.32 25 -13 25 C-12.67 21.7 -12.34 18.4 -12 15 C-10.35 15 -8.7 15 -7 15 C-6.72414063 14.28457031 -6.44828125 13.56914062 -6.1640625 12.83203125 C-5.01751478 10.04261145 -3.73772885 7.37709642 -2.375 4.6875 C-1.92898438 3.80449219 -1.48296875 2.92148437 -1.0234375 2.01171875 C-0.68570312 1.34785156 -0.34796875 0.68398438 0 0 Z " fill="#4D8BAD" transform="translate(506,425)"/>
<path d="M0 0 C8.25 0 16.5 0 25 0 C25 1.32 25 2.64 25 4 C24.34 4 23.68 4 23 4 C22.67 4.66 22.34 5.32 22 6 C22 4.68 22 3.36 22 2 C11.11 2.495 11.11 2.495 0 3 C0 2.01 0 1.02 0 0 Z " fill="#475067" transform="translate(357,623)"/>
<path d="M0 0 C4.83822352 7.25733528 3.12048436 18.57948161 3 27 C2.01 27 1.02 27 0 27 C0 18.09 0 9.18 0 0 Z " fill="#65A491" transform="translate(342,250)"/>
<path d="M0 0 C0.33 0.99 0.66 1.98 1 3 C0.34 3.66 -0.32 4.32 -1 5 C-1.69748583 6.31747324 -2.36959957 7.64914193 -3 9 C-8.75 8.25 -8.75 8.25 -11 6 C-7.4912812 2.90407165 -4.50802601 1.25805377 0 0 Z " fill="#3D7EBE" transform="translate(575,90)"/>
<path d="M0 0 C0.33 0 0.66 0 1 0 C1.39782446 11.08014794 0.41706541 21.18075485 -2 32 C-2.33 32 -2.66 32 -3 32 C-3.12567325 25.46499102 -3.12567325 25.46499102 -2.4921875 23.12109375 C-1.8735419 20.45502579 -1.98030895 18.04624575 -2.0625 15.3125 C-2.12259432 9.87062545 -1.39929373 5.24735149 0 0 Z " fill="#4375AB" transform="translate(717,306)"/>
<path d="M0 0 C0.99 0.495 0.99 0.495 2 1 C2 1.99 2 2.98 2 4 C7.94 4 13.88 4 20 4 C20 4.66 20 5.32 20 6 C13.4 6 6.8 6 0 6 C0 4.02 0 2.04 0 0 Z " fill="#152546" transform="translate(732,747)"/>
<path d="M0 0 C-5.52868324 3.96018357 -11.02157325 7.75085503 -17 11 C-15.63016497 7.83884224 -15.0109362 7.0072908 -12 5 C-11.01 5 -10.02 5 -9 5 C-9.33 3.35 -9.66 1.7 -10 0 C-3.375 -1.125 -3.375 -1.125 0 0 Z " fill="#56A4AD" transform="translate(536,528)"/>
<path d="M0 0 C0.33 0.99 0.66 1.98 1 3 C-0.109375 4.9375 -0.109375 4.9375 -1.75 7 C-2.28109375 7.680625 -2.8121875 8.36125 -3.359375 9.0625 C-4.84397327 10.81573986 -6.27426452 12.48286991 -8 14 C-8.66 14 -9.32 14 -10 14 C-10.66 15.32 -11.32 16.64 -12 18 C-12.99 18 -13.98 18 -15 18 C-14.41992188 17.3709375 -13.83984375 16.741875 -13.2421875 16.09375 C-8.52298491 10.92287456 -4.06245589 5.70336945 0 0 Z " fill="#5994B7" transform="translate(592,382)"/>
<path d="M0 0 C-0.33 0.99 -0.66 1.98 -1 3 C-2.92578125 3.6953125 -2.92578125 3.6953125 -5.3125 4.125 C-6.48232422 4.34542969 -6.48232422 4.34542969 -7.67578125 4.5703125 C-8.82626953 4.78300781 -8.82626953 4.78300781 -10 5 C-11.33583795 5.3231499 -12.67013726 5.65307929 -14 6 C-10.31063898 1.88494347 -5.74338985 -2.42989571 0 0 Z " fill="#4078B5" transform="translate(618,199)"/>
<path d="M0 0 C1.5625 1.6875 1.5625 1.6875 3 4 C2.6875 6.75 2.6875 6.75 2 9 C-1 8 -1 8 -2.1875 6.125 C-3 4 -3 4 -3 1 C-2.01 0.67 -1.02 0.34 0 0 Z " fill="#3C78B9" transform="translate(628,252)"/>
<path d="M0 0 C0.33 0 0.66 0 1 0 C1.36844295 5.77227287 0.46863195 10.7230161 -2 16 C-2.66 16.33 -3.32 16.66 -4 17 C-3.45018084 10.95198929 -2.09570426 5.69398894 0 0 Z " fill="#70ACB6" transform="translate(482,518)"/>
<path d="M0 0 C0.33 0.99 0.66 1.98 1 3 C-0.95467752 4.33898399 -2.9133579 5.67129047 -4.875 7 C-5.96554687 7.7425 -7.05609375 8.485 -8.1796875 9.25 C-11 11 -11 11 -13 11 C-13 10.34 -13 9.68 -13 9 C-12.01 9 -11.02 9 -10 9 C-10 8.34 -10 7.68 -10 7 C-9.38125 6.731875 -8.7625 6.46375 -8.125 6.1875 C-5.7004767 5.04443152 -5.7004767 5.04443152 -4 2 C-1.875 0.8125 -1.875 0.8125 0 0 Z " fill="#55A0B0" transform="translate(599,484)"/>
<path d="M0 0 C0.86044922 0.33064453 0.86044922 0.33064453 1.73828125 0.66796875 C0.74828125 0.66796875 -0.24171875 0.66796875 -1.26171875 0.66796875 C-1.59171875 1.65796875 -1.92171875 2.64796875 -2.26171875 3.66796875 C-3.89236639 4.72568614 -5.56452748 5.72069921 -7.26171875 6.66796875 C-8.608037 7.6504172 -9.94613172 8.64473439 -11.26171875 9.66796875 C-10.71920725 5.95136014 -9.42104494 4.5774464 -6.44921875 2.35546875 C-5.41861328 1.55689453 -5.41861328 1.55689453 -4.3671875 0.7421875 C-2.26171875 -0.33203125 -2.26171875 -0.33203125 0 0 Z " fill="#182848" transform="translate(691.26171875,700.33203125)"/>
<path d="M0 0 C2 2 2 2 2 4 C2.99 4.33 3.98 4.66 5 5 C4.67 6.98 4.34 8.96 4 11 C3.01 11 2.02 11 1 11 C-0.28317892 7.15046324 -0.06643637 4.05261865 0 0 Z " fill="#53A0AD" transform="translate(479,568)"/>
<path d="M0 0 C0.66 0.33 1.32 0.66 2 1 C-8.37357631 8.48291572 -8.37357631 8.48291572 -14 11 C-14 10.34 -14 9.68 -14 9 C-12.01310269 7.64721885 -10.01254782 6.31431695 -8 5 C-7.67 4.34 -7.34 3.68 -7 3 C-3.5625 1.3125 -3.5625 1.3125 0 0 Z " fill="#5BA3AE" transform="translate(581,497)"/>
<path d="M0 0 C0.99 0.495 0.99 0.495 2 1 C2.33 1.99 2.66 2.98 3 4 C3.66 3.34 4.32 2.68 5 2 C5 4.64 5 7.28 5 10 C4.01 10.33 3.02 10.66 2 11 C1.34 7.37 0.68 3.74 0 0 Z " fill="#4C87A8" transform="translate(459,504)"/>
<path d="M0 0 C0.66 0.33 1.32 0.66 2 1 C2 2.98 2 4.96 2 7 C0.125 6.75 0.125 6.75 -2 6 C-3.25 3.9375 -3.25 3.9375 -4 2 C-2.125 0.9375 -2.125 0.9375 0 0 Z " fill="#407BBB" transform="translate(621,243)"/>
<path d="M0 0 C0.66 0.66 1.32 1.32 2 2 C0.68 6.29 -0.64 10.58 -2 15 C-2.66 15 -3.32 15 -4 15 C-2.07289294 4.44191344 -2.07289294 4.44191344 0 0 Z " fill="#83B9A0" transform="translate(354,184)"/>
<path d="M0 0 C0.66 0.33 1.32 0.66 2 1 C-0.97 3.64 -3.94 6.28 -7 9 C-7.33 8.01 -7.66 7.02 -8 6 C-6.68 5.34 -5.36 4.68 -4 4 C-4 3.34 -4 2.68 -4 2 C-2.125 0.9375 -2.125 0.9375 0 0 Z " fill="#5EA7AC" transform="translate(505,548)"/>
<path d="M0 0 C0.99 0.33 1.98 0.66 3 1 C2.67 1.99 2.34 2.98 2 4 C2.66 4 3.32 4 4 4 C3.67 7.96 3.34 11.92 3 16 C2.67 16 2.34 16 2 16 C1.93941406 15.26394531 1.87882812 14.52789063 1.81640625 13.76953125 C1.73261719 12.79371094 1.64882813 11.81789063 1.5625 10.8125 C1.48128906 9.84957031 1.40007812 8.88664063 1.31640625 7.89453125 C1.02333849 5.21350398 0.57296246 2.6337014 0 0 Z " fill="#505B70" transform="translate(465,650)"/>
<path d="M0 0 C1.52519276 0.08937803 3.04681929 0.24537146 4.5625 0.4375 C5.80193359 0.59025391 5.80193359 0.59025391 7.06640625 0.74609375 C7.70449219 0.82988281 8.34257813 0.91367187 9 1 C8.67 1.66 8.34 2.32 8 3 C5.4375 3.625 5.4375 3.625 3 4 C3 3.34 3 2.68 3 2 C1.68 1.67 0.36 1.34 -1 1 C-0.67 0.67 -0.34 0.34 0 0 Z " fill="#293754" transform="translate(644,727)"/>
<path d="M0 0 C0.99 1.32 1.98 2.64 3 4 C2.1875 7.25 2.1875 7.25 1 10 C0.34 10 -0.32 10 -1 10 C-0.67 6.7 -0.34 3.4 0 0 Z " fill="#6E98B0" transform="translate(494,440)"/>
<path d="M0 0 C0 0.66 0 1.32 0 2 C-1.75 3.5078125 -1.75 3.5078125 -4 5.125 C-4.7425 5.66382813 -5.485 6.20265625 -6.25 6.7578125 C-6.8275 7.16773438 -7.405 7.57765625 -8 8 C-7.0320781 3.29866507 -5.15851549 0 0 0 Z " fill="#4C93B0" transform="translate(565,417)"/>
<path d="M0 0 C0.33 0.99 0.66 1.98 1 3 C0.01 4.485 0.01 4.485 -1 6 C-1.66 6 -2.32 6 -3 6 C-3 8.64 -3 11.28 -3 14 C-3.33 14 -3.66 14 -4 14 C-4.63019694 5.96498906 -4.63019694 5.96498906 -2 1.9375 C-1.34 1.298125 -0.68 0.65875 0 0 Z " fill="#505A6F" transform="translate(638,730)"/>
<path d="M0 0 C0.33 0.66 0.66 1.32 1 2 C0.2884375 2.928125 0.2884375 2.928125 -0.4375 3.875 C-2.02417441 5.90705546 -2.02417441 5.90705546 -3 8 C-3.66 8 -4.32 8 -5 8 C-5.33 7.01 -5.66 6.02 -6 5 C-4.02 3.35 -2.04 1.7 0 0 Z " fill="#4780BA" transform="translate(563,97)"/>
<path d="M0 0 C0.99 0.33 1.98 0.66 3 1 C4.1875 4.5625 4.1875 4.5625 5 8 C4.34 8.66 3.68 9.32 3 10 C2.01 6.7 1.02 3.4 0 0 Z " fill="#3A4661" transform="translate(265,631)"/>
<path d="M0 0 C3.34726719 1.11575573 3.62079748 1.51344622 5.25 4.4375 C5.8275 5.613125 6.405 6.78875 7 8 C6.67 8.66 6.34 9.32 6 10 C3.25722422 6.80009492 1.3697164 3.99500618 0 0 Z " fill="#5595A2" transform="translate(469,358)"/>
<path d="M0 0 C1.2065625 0.0309375 1.2065625 0.0309375 2.4375 0.0625 C0.81410195 1.77134005 -0.85569053 3.43696717 -2.5625 5.0625 C-3.2225 5.0625 -3.8825 5.0625 -4.5625 5.0625 C-3.43829114 0.08386076 -3.43829114 0.08386076 0 0 Z " fill="#4176B6" transform="translate(620.5625,174.9375)"/>
<path d="M0 0 C0.33 0.66 0.66 1.32 1 2 C-0.26418246 2.69965443 -1.53665402 3.38434763 -2.8125 4.0625 C-3.52019531 4.44535156 -4.22789062 4.82820313 -4.95703125 5.22265625 C-7 6 -7 6 -10 5 C-6.8745041 2.35534962 -3.91211733 1.15585285 0 0 Z " fill="#5E8ABA" transform="translate(575,90)"/>
<path d="M0 0 C0.99 0.66 1.98 1.32 3 2 C2.34 2 1.68 2 1 2 C0.731875 2.78375 0.46375 3.5675 0.1875 4.375 C-1 7 -1 7 -4 9 C-2.94124926 5.59687262 -1.99097846 2.98646769 0 0 Z " fill="#4797A3" transform="translate(492,498)"/>
<path d="M0 0 C4.3890815 0.51035831 7.33708062 1.52214277 11 4 C7.98968256 4.93423645 7.13349732 5.04449911 4 4 C3.67 3.34 3.34 2.68 3 2 C2.01 1.34 1.02 0.68 0 0 Z " fill="#4372B3" transform="translate(663,197)"/>
<path d="M0 0 C-0.99 0 -1.98 0 -3 0 C-3.33 0.99 -3.66 1.98 -4 3 C-4.99 3.33 -5.98 3.66 -7 4 C-7 3.34 -7 2.68 -7 2 C-7.66 1.67 -8.32 1.34 -9 1 C-5.57367167 -0.61798838 -3.61944899 -1.34053666 0 0 Z " fill="#384560" transform="translate(700,698)"/>
<path d="M0 0 C2 3 2 3 1.625 5.6875 C1.41875 6.450625 1.2125 7.21375 1 8 C0.01 8.33 -0.98 8.66 -2 9 C-1.125 2.25 -1.125 2.25 0 0 Z " fill="#38445D" transform="translate(512,662)"/>
<path d="M0 0 C0.66 1.32 1.32 2.64 2 4 C1.67 4.33 1.34 4.66 1 5 C0.76924918 6.34747084 0.58846937 7.70377565 0.4375 9.0625 C0.2209375 11.0115625 0.2209375 11.0115625 0 13 C-0.33 13 -0.66 13 -1 13 C-1.33 9.37 -1.66 5.74 -2 2 C-1.34 2 -0.68 2 0 2 C0 1.34 0 0.68 0 0 Z " fill="#61B396" transform="translate(345,236)"/>
<path d="M0 0 C0.66 0.99 1.32 1.98 2 3 C1.01 3.99 0.02 4.98 -1 6 C-1.99 5.67 -2.98 5.34 -4 5 C-2.68 3.35 -1.36 1.7 0 0 Z " fill="#528FB1" transform="translate(599,373)"/>
<path d="M0 0 C1.32 0.66 2.64 1.32 4 2 C4 2.66 4 3.32 4 4 C3.01 4 2.02 4 1 4 C0.67 4.66 0.34 5.32 0 6 C-0.38218767 4.34385343 -0.71395102 2.67542976 -1 1 C-0.67 0.67 -0.34 0.34 0 0 Z " fill="#3F73BB" transform="translate(686,212)"/>
</svg>
